<?xml version="1.0" encoding="UTF-8" standalone="no"?>
<svg width="103px" height="113px" viewBox="0 0 103 113" version="1.1" xmlns="http://www.w3.org/2000/svg" xmlns:xlink="http://www.w3.org/1999/xlink" xmlns:sketch="http://www.bohemiancoding.com/sketch/ns">
    <!-- Generator: Sketch 3.4.4 (17249) - http://www.bohemiancoding.com/sketch -->
    <title>Shape</title>
    <desc>Created with Sketch.</desc>
    <defs></defs>
    <g id="Page-1" stroke="none" stroke-width="1" fill="none" fill-rule="evenodd" sketch:type="MSPage">
        <path d="M97.3080835,74.9390431 L74.9596684,52.590628 L79.1327774,48.417519 L108.34454,77.6292815 L79.1327774,106.841043 L74.9596684,102.667935 L96.6969127,80.9306906 C96.5299746,80.9465331 96.3596289,80.9623915 96.185921,80.9782404 C82.4172435,82.2344799 67.2870531,81.7307407 52.9543007,78.1827546 C42.7062918,75.6459218 33.6511889,71.6755687 26.1311216,66.0555815 C18.9107891,60.6595951 12.9001494,54.2187451 7.99581287,46.9595735 C2.6018236,38.9756402 -1.1885957,30.4361791 -3.65999816,21.8958828 C-4.52626434,18.9023721 -5.16663354,16.1177013 -5.61557484,13.610092 C-5.88892313,12.0832763 -6.03885463,10.9717806 -6.09930682,10.3438322 L-6.38207411,7.40657809 L-0.507565963,6.84104339 L-0.224798614,9.7782975 C-0.179214432,10.2518047 -0.0505636935,11.2055383 0.193725906,12.5700436 C0.607514338,14.8813028 1.20194956,17.4662282 2.00907219,20.2553596 C4.31878059,28.2368979 7.86192482,36.2192713 12.8860284,43.655717 C17.4319129,50.3843248 22.9907465,56.3410307 29.6640448,61.3282003 C36.5005857,66.4373669 44.842061,70.0948189 54.3724188,72.4540009 C67.9674663,75.8193729 82.4802048,76.3025542 95.6496867,75.1009854 C96.2472399,75.0464652 96.8007827,74.9920725 97.3080835,74.9390431 L97.3080835,74.9390431 Z" id="Shape" fill="#FFFFFF" sketch:type="MSShapeGroup" transform="translate(50.981233, 56.841043) scale(-1, 1) rotate(-88.000000) translate(-50.981233, -56.841043) "></path>
    </g>
</svg>