<svg xmlns="http://www.w3.org/2000/svg" version="1.1" x="0" y="0" viewBox="0 0 100 100" enable-background="new 0 0 100 100" xml:space="preserve"><path d="M81.4 38.8c-1.6-4.4 0.2-9.2 4.1-11.6 -2.4-3.8-5.5-7.2-9.1-10.1 -1.1 1.4-2.7 2.6-4.4 3.2 -2.3 0.9-5 0.8-7.4-0.3 -2.4-1.1-4.2-3.1-5-5.5 -0.6-1.7-0.8-3.7-0.3-5.6 -4.6-1-9.3-1.2-13.8-0.7 0.5 4.3-2 8.7-6.3 10.3 -4.4 1.6-9.1-0.2-11.5-3.9 -3.8 2.5-7.2 5.6-10.1 9.2 1.4 1.1 2.5 2.6 3.1 4.3 0.9 2.3 0.8 5-0.3 7.4 -1.2 2.5-3.1 4.2-5.5 5 -1.7 0.6-3.5 0.7-5.3 0.4 -1 4.7-1.2 9.5-0.6 14.1 4.4-0.6 8.8 2 10.3 6.3 1.6 4.3-0.1 9-3.8 11.4 2.5 3.8 5.6 7.1 9.3 10 1.1-1.4 2.6-2.5 4.3-3.1 2.4-0.8 5-0.8 7.4 0.3 2.4 1.1 4.2 3.1 5 5.5 0.6 1.7 0.7 3.5 0.4 5.3 4.5 0.9 9 1.1 13.4 0.5 -0.5-4.3 2-8.6 6.3-10.3 4.3-1.5 9 0.2 11.4 3.9 3.8-2.5 7.2-5.6 10.1-9.2 -1.4-1.1-2.5-2.6-3.2-4.3 -0.8-2.3-0.8-5 0.4-7.4 1.1-2.4 3.2-4.1 5.5-5 1.7-0.6 3.6-0.7 5.4-0.3 0.9-4.4 1.1-8.9 0.7-13.2C87.5 45.7 83 43.2 81.4 38.8zM54.8 62c-6.8 2.4-14.2-1.1-16.7-7.8 -2.4-6.8 1.1-14.2 7.8-16.7 6.8-2.4 14.2 1.1 16.7 7.8C65 52.1 61.5 59.6 54.8 62z"/></svg>