<?xml version="1.0" encoding="UTF-8" standalone="no"?>
<svg width="6px" height="20px" viewBox="0 0 6 20" version="1.1" xmlns="http://www.w3.org/2000/svg" xmlns:xlink="http://www.w3.org/1999/xlink" xmlns:sketch="http://www.bohemiancoding.com/sketch/ns">
    <!-- Generator: Sketch 3.4.4 (17249) - http://www.bohemiancoding.com/sketch -->
    <title>Oval</title>
    <desc>Created with Sketch.</desc>
    <defs></defs>
    <g id="Page-1" stroke="none" stroke-width="1" fill="none" fill-rule="evenodd" sketch:type="MSPage">
        <g id="noun_248826_cc" sketch:type="MSLayerGroup" fill="#EE424E">
            <path d="M2.95912745,20 C3.83321012,20 4.54179412,19.291416 4.54179412,18.4173333 C4.54179412,17.5432507 3.83321012,16.8346667 2.95912745,16.8346667 C2.08504479,16.8346667 1.37646079,17.5432507 1.37646079,18.4173333 C1.37646079,19.291416 2.08504479,20 2.95912745,20 Z M4.6435719,0.796222222 C4.15734967,0.34 3.5995719,0 2.95912745,0 C2.31868301,0 1.76090523,0.34 1.27468301,0.796222222 C0.670460786,1.36266667 0.624683008,1.98422222 0.678460786,2.67177778 L1.7255719,14.5464444 C1.78534967,15.3077778 2.25001634,15.8784444 2.95912745,15.8784444 C3.66823856,15.8784444 4.13312745,15.3077778 4.19268301,14.5464444 L5.23979412,2.67177778 C5.2935719,1.98422222 5.24779412,1.36266667 4.6435719,0.796222222 Z" id="Oval" sketch:type="MSShapeGroup"></path>
        </g>
    </g>
</svg>