<?xml version="1.0" encoding="UTF-8" standalone="no"?>
<svg width="20px" height="19px" viewBox="0 0 20 19" version="1.1" xmlns="http://www.w3.org/2000/svg" xmlns:xlink="http://www.w3.org/1999/xlink" xmlns:sketch="http://www.bohemiancoding.com/sketch/ns">
    <!-- Generator: Sketch 3.4.4 (17249) - http://www.bohemiancoding.com/sketch -->
    <title>noun_1375_cc copy 5</title>
    <desc>Created with Sketch.</desc>
    <defs></defs>
    <g id="Page-1" stroke="none" stroke-width="1" fill="none" fill-rule="evenodd" sketch:type="MSPage">
        <g id="Desktop---Main-View" sketch:type="MSArtboardGroup" transform="translate(-238.000000, -611.000000)">
            <g id="Oval-7-+-noun_1375_cc-copy-5" sketch:type="MSLayerGroup" transform="translate(233.000000, 606.000000)">
                <g id="noun_1375_cc-copy-5" transform="translate(5.000000, 5.000000)" sketch:type="MSShapeGroup">
                    <g id="Group-Copy">
                        <path d="M13.0006792,7.00879798 C13.6747702,6.78245459 12.4835224,4.80652346 11.6216743,3.70751856 C11.8430769,3.24212447 14.3587459,3.35388564 15.1057684,3.34494393 C18.0174254,4.80982783 19.966991,7.48549044 19.966991,10.54278 C19.966991,15.1727121 15.4961017,18.9271584 9.98360764,18.9271584 C4.47063971,18.9271584 -1.26362344e-05,15.1727121 -1.26362344e-05,10.54278 C-1.26362344e-05,7.87347023 1.48604802,5.49520455 3.80101406,3.95950719 C4.31817091,3.85033502 4.43793082,4.18891012 6.61925762,3.70304691 C5.58447481,4.09244353 4.64756279,5.9279087 5.07084663,6.95021166 C6.38114832,7.23537672 8.04931764,4.49289054 8.99705102,4.45313379 C9.83373559,4.90747117 11.8948349,7.38008214 13.0006792,7.00879798 Z" id="Path" fill="#EE424E"></path>
                        <path d="M4.22407203,3.64869531 C6.27270573,2.56426631 6.3708103,2.5160338 8.32508293,2.30615858 C8.75612541,2.26004281 9.38245301,1.27631654 9.20810772,0.258709525 C9.33280872,0.164830832 9.5537419,-0.0106918338 9.81043753,0.055657874 C10.2200679,0.161536092 10.4447654,1.43231085 10.3099479,2.20451272 C11.8256531,2.11133991 14.1549803,2.6016743 14.4227263,3.01436424 C13.0632491,2.82778392 11.2275596,3.07695009 11.1790839,3.52375612 C11.0301485,4.8971142 12.3020992,4.97452377 12.7707913,6.55070289 C11.3703743,6.05260464 9.8172611,4.60090033 9.10881061,3.93198547 C8.30813616,3.91080982 7.10653609,5.04229506 5.43248776,6.46529774 C5.43248776,5.08935081 7.31618702,3.72682041 7.12206287,3.36164903 C6.99759706,3.12777602 5.18072658,3.69128258 4.22405307,3.64869689 L4.22407203,3.64869531 Z" id="Path" fill="#9CCC65"></path>
                    </g>
                </g>
            </g>
        </g>
    </g>
</svg>