<?xml version="1.0" encoding="UTF-8" standalone="no"?>
<svg width="25px" height="25px" viewBox="0 0 25 25" version="1.1" xmlns="http://www.w3.org/2000/svg" xmlns:xlink="http://www.w3.org/1999/xlink" xmlns:sketch="http://www.bohemiancoding.com/sketch/ns">
    <!-- Generator: Sketch 3.4.4 (17249) - http://www.bohemiancoding.com/sketch -->
    <title>Shape</title>
    <desc>Created with Sketch.</desc>
    <defs></defs>
    <g id="Page-1" stroke="none" stroke-width="1" fill="none" fill-rule="evenodd" sketch:type="MSPage">
        <g id="noun_299645_cc" sketch:type="MSLayerGroup" fill="#979797">
            <path d="M3.82639105,3.9550786 L3.72159966,3.88309144 L3.58560345,4.07950794 L3.58560345,1.41042458 C3.58560345,0.8797194 3.15438491,0.449488115 2.62242284,0.449488115 L1.2740304,0.449488115 C0.742068334,0.449488115 0.31088,0.8797194 0.31088,1.41042458 L0.31088,9.29031508 C0.31088,9.82105047 0.742068334,10.2512818 1.2740304,10.2512818 L9.17186975,10.2512818 C9.70380161,10.2512818 10.1350202,9.82105047 10.1350202,9.29031508 L10.1350202,7.94497381 C10.1350202,7.41423842 9.70380161,6.98400714 9.17186975,6.98400714 L6.26507918,6.98400714 C6.98324307,6.15511258 7.95137779,5.3740685 8.72642326,4.97800317 C9.1116653,4.78581588 9.49693754,4.59362858 9.85810384,4.47348887 C10.2193003,4.3293635 10.6045726,4.23326986 10.9898146,4.16119207 C11.4713898,4.06509842 12.0974497,4.0170365 12.6031006,4.0170365 C17.0817621,4.0170365 20.8380607,7.71674763 20.8380607,12.2572857 C20.8380607,12.3293635 20.7899092,13.050081 20.7417276,13.4344555 C20.5250157,14.8278587 19.9471375,16.3413714 18.7191238,17.7828063 C17.8282006,18.8158508 16.0463844,20.0170365 14.4090227,20.3293635 C13.3013877,20.5455667 12.7475853,21.4104397 12.7475853,22.2512666 C12.7475853,23.2602953 13.5180995,24.1732 14.6498103,24.1732 C15.0832038,24.1732 15.8537483,23.9329508 16.2389904,23.8128413 C17.996761,23.2602953 19.7785772,22.3233444 21.4881661,20.4734889 C22.9810734,18.8398667 23.7756634,17.1581825 24.2331629,15.5005143 C24.4498747,14.7317651 24.5702534,13.8428762 24.6665866,13.0740968 L24.6665866,11.4885063 C24.6665866,10.6476794 24.2331629,8.89391745 23.9923753,8.26929365 C21.8493626,2.45549208 16.8168987,0.1732 12.6031006,0.1732 C11.8085106,0.1732 10.9898146,0.221261928 10.2433761,0.389433362 C9.66549793,0.509542868 9.08758956,0.677714302 8.5097114,0.869901595 C6.97025365,1.41556005 5.2944372,2.4198459 3.82639105,3.9550786 L3.82639105,3.9550786 Z" id="Shape" sketch:type="MSShapeGroup"></path>
        </g>
    </g>
</svg>