<?xml version="1.0" encoding="UTF-8" standalone="no"?>
<svg width="21px" height="19px" viewBox="0 0 21 19" version="1.1" xmlns="http://www.w3.org/2000/svg" xmlns:xlink="http://www.w3.org/1999/xlink" xmlns:sketch="http://www.bohemiancoding.com/sketch/ns">
    <!-- Generator: Sketch 3.4.4 (17249) - http://www.bohemiancoding.com/sketch -->
    <title>Shape</title>
    <desc>Created with Sketch.</desc>
    <defs>
        <linearGradient x1="25.0247968%" y1="100%" x2="71.4667686%" y2="7.21004167%" id="linearGradient-1">
            <stop stop-color="#FFDB71" offset="0%"></stop>
            <stop stop-color="#FF625D" offset="100%"></stop>
        </linearGradient>
        <linearGradient x1="25.4743873%" y1="100%" x2="71.0803352%" y2="7.21004167%" id="linearGradient-2">
            <stop stop-color="#FFDB71" offset="0%"></stop>
            <stop stop-color="#FF625D" offset="100%"></stop>
        </linearGradient>
    </defs>
    <g id="Page-1" stroke="none" stroke-width="1" fill="none" fill-rule="evenodd" sketch:type="MSPage">
        <g id="Desktop---Main-View" sketch:type="MSArtboardGroup" transform="translate(-238.000000, -692.000000)" fill="url(#linearGradient-2)">
            <g id="Shape" sketch:type="MSLayerGroup" transform="translate(233.000000, 687.000000)">
                <g transform="translate(5.500000, 5.000000)" id="Page-1" sketch:type="MSShapeGroup">
                    <g>
                        <g id="noun_108434_cc">
                            <path d="M19.5396888,13.3976751 C17.8689823,17.8528925 14.4549299,16.3032516 13.9706671,15.7463494 C13.0263547,17.1991377 11.839911,18.2645158 10.3871227,18.2645158 L6.58566006,18.2645158 C2.44521349,18.2645158 0.387096774,7.92550594 0.387096774,7.92550594 C0.387096774,7.24753806 1.06506463,7.24753806 1.06506463,7.24753806 L16.2224889,7.24753806 C16.2224889,7.24753806 16.9004568,7.24753806 16.9004568,7.92550594 C16.9004568,7.92550594 16.8762436,8.07078477 16.8036043,8.33712929 C17.7237035,8.28870297 20.5082143,9.52357303 19.5396888,13.3976751 L19.5396888,13.3976751 L19.5396888,13.3976751 Z M16.4888334,9.69306497 C16.1256364,11.0247875 15.5203079,12.8649861 14.6728481,14.5114794 C14.9876189,15.0683816 17.0699488,15.9884808 18.2079662,12.9860517 C18.9101472,10.1046883 16.9973094,9.64463871 16.4888334,9.69306497 L16.4888334,9.69306497 L16.4888334,9.69306497 Z M11.4525008,4.8988637 C10.4839752,5.6010447 11.3072219,6.18216 11.3072219,6.18216 C10.3386965,6.18216 10.0481388,4.8988637 10.7503197,4.63251918 C11.4525008,4.34196153 11.1619431,3.78505935 11.1619431,3.78505935 C12.2999606,4.34196153 11.4525008,4.8988637 11.4525008,4.8988637 L11.4525008,4.8988637 L11.4525008,4.8988637 Z M9.85443368,3.8092725 C8.159514,5.11678194 9.61230232,6.18216 9.61230232,6.18216 C7.91738265,6.18216 7.43311987,3.8092725 8.64377677,3.27658346 C9.85443368,2.74389443 9.3701709,1.7027295 9.3701709,1.7027295 C11.3072219,2.74389443 9.85443368,3.8092725 9.85443368,3.8092725 L9.85443368,3.8092725 L9.85443368,3.8092725 Z M7.57839871,3.08287836 C5.15708493,4.80201115 7.23941477,6.18216 7.23941477,6.18216 C4.818101,6.18216 4.11592,3.08287836 5.85926593,2.38069736 C7.60261187,1.7027295 6.90043084,0.322580645 6.90043084,0.322580645 C9.66072858,1.7027295 7.57839871,3.08287836 7.57839871,3.08287836 L7.57839871,3.08287836 L7.57839871,3.08287836 Z" id="Shape"></path>
                        </g>
                    </g>
                </g>
            </g>
        </g>
    </g>
</svg>